<?xml version="1.0" encoding="UTF-8" standalone="no"?>
<svg
   xmlns:dc="http://purl.org/dc/elements/1.1/"
   xmlns:cc="http://creativecommons.org/ns#"
   xmlns:rdf="http://www.w3.org/1999/02/22-rdf-syntax-ns#"
   xmlns:svg="http://www.w3.org/2000/svg"
   xmlns="http://www.w3.org/2000/svg"
   xmlns:xlink="http://www.w3.org/1999/xlink"
   xmlns:sodipodi="http://sodipodi.sourceforge.net/DTD/sodipodi-0.dtd"
   xmlns:inkscape="http://www.inkscape.org/namespaces/inkscape"
   version="1.1"
   width="6450.5"
   height="4810.4"
   viewBox="-28467,-27108 64505,48104"
   id="svg4572"
   sodipodi:docname="oregon.svg"
   inkscape:version="0.92.1 r15371">
  <metadata
     id="metadata4578">
    <rdf:RDF>
      <cc:Work
         rdf:about="">
        <dc:format>image/svg+xml</dc:format>
        <dc:type
           rdf:resource="http://purl.org/dc/dcmitype/StillImage" />
        <dc:title></dc:title>
      </cc:Work>
    </rdf:RDF>
  </metadata>
  <defs
     id="defs4576" />
  <sodipodi:namedview
     pagecolor="#ffffff"
     bordercolor="#666666"
     borderopacity="1"
     objecttolerance="10"
     gridtolerance="10"
     guidetolerance="10"
     inkscape:pageopacity="0"
     inkscape:pageshadow="2"
     inkscape:window-width="1920"
     inkscape:window-height="1057"
     id="namedview4574"
     showgrid="false"
     inkscape:zoom="0.13053194"
     inkscape:cx="3041.891"
     inkscape:cy="2404.6224"
     inkscape:window-x="1912"
     inkscape:window-y="-8"
     inkscape:window-maximized="1"
     inkscape:current-layer="svg4572" />
  <clipPath
     id="state_clip_path">
    <g
       id="state_outline">
      <path
         id="1375"
         d="M -22653,-27108 l 10,5 21,15 10,10 25,56 36,112 20,16 15,10 -10,20 -46,-30 -66,-46 -50,-36 -21,-45 -10,-31 5,-20 21,-5 20,-6 10,-20 z" />
      <path
         id="1376"
         d="M -22450,-26864 l 5,-25 20,-5 31,5 35,5 36,10 35,5 21,10 20,25 -10,11 -10,10 -21,25 -35,-10 -51,-10 -40,-20 z" />
      <path
         id="1377"
         d="M -18586,-26692 l -15,0 0,-15 10,-5 5,-11 20,-10 30,5 21,16 5,15 -31,0 z" />
      <path
         id="1378"
         d="M -18510,-26616 l -5,-15 15,5 20,10 21,5 -21,-15 -25,-10 -30,-15 -11,-10 0,-11 26,-5 30,0 15,5 56,15 51,61 30,31 -10,10 -45,0 z" />
      <path
         id="1379"
         d="M -18530,-26560 l 10,-25 20,0 112,50 30,-5 41,0 20,10 10,26 -15,10 -36,15 -15,5 -96,26 -76,-76 z" />
      <path
         id="1380"
         d="M -18911,-26554 l -20,15 -127,16 -10,-20 71,-51 41,0 z" />
      <path
         id="1381"
         d="M -18723,-26513 l 51,-31 20,0 15,-15 20,10 21,71 15,25 -10,16 -56,-31 -40,-10 -31,-15 z" />
      <path
         id="1382"
         d="M -19052,-26498 l 20,-5 15,0 10,21 0,20 -15,15 -15,5 -10,0 -5,26 -16,10 -15,-5 0,-36 -25,-15 -26,0 -10,-15 5,-15 21,-31 15,5 20,10 10,10 z" />
      <path
         id="1383"
         d="M -18474,-26315 l -5,-16 5,-40 0,-21 25,-25 35,-11 51,-15 46,-5 25,10 20,25 26,5 20,-5 31,-5 10,0 35,112 0,51 -35,26 0,96 -5,10 -30,11 -46,-41 -66,-35 -36,-56 -40,-5 -41,-46 z" />
      <path
         id="1384"
         d="M -17631,-25350 l 76,15 168,15 132,20 106,-5 81,10 56,35 81,31 61,4 107,-20 71,-16 76,-25 30,-21 15,-5 41,-107 91,-107 15,-41 71,-81 45,-41 66,-36 71,-31 25,5 51,66 36,36 112,40 5,0 40,10 31,5 101,5 96,10 117,10 56,36 71,45 102,56 71,91 15,10 41,41 30,56 31,25 25,77 77,35 60,15 92,20 76,36 142,126 112,81 86,51 122,51 82,50 122,81 40,31 51,96 56,138 31,76 46,254 51,81 6,127 25,92 26,76 36,46 61,66 112,96 56,76 25,51 26,51 15,122 5,81 -4,66 -10,41 -10,31 -5,35 -11,26 11,15 10,-20 15,-21 20,-10 0,86 6,51 -5,61 87,305 56,112 15,66 16,41 5,56 -25,10 -26,10 -20,15 20,5 21,11 -5,20 -10,35 -41,62 -15,25 -25,-5 -26,0 -30,16 -15,15 -10,0 -26,-5 5,-20 5,-11 -10,-10 -10,10 -10,16 -10,10 -21,0 -10,10 10,10 16,5 10,10 15,11 5,10 -20,10 -15,-5 -16,-10 -30,36 -25,15 -41,76 -50,92 -25,56 -10,31 -21,25 -20,15 -20,11 0,50 -10,6 -36,20 21,10 40,-10 31,-31 5,-10 35,-46 10,-46 20,-25 15,-31 16,-25 15,-15 30,-11 21,-5 15,-25 0,-41 5,-20 10,-21 20,-10 15,-5 21,5 10,-5 10,-21 5,-20 10,-20 10,-21 25,-15 41,-21 0,21 -31,25 -15,26 0,25 71,-41 10,-25 41,-71 20,-41 10,-46 10,-31 10,-10 5,5 5,26 -5,35 -25,61 -10,36 -55,163 0,102 5,56 31,86 46,71 41,127 82,112 15,61 20,76 1,106 -25,31 -26,46 0,51 11,61 15,50 -5,51 -15,92 -25,173 -40,152 1,127 20,82 46,127 31,76 -51,41 -50,51 -46,40 -35,31 -26,36 -15,86 -10,41 -5,15 11,61 35,91 67,71 -11,-86 -20,-97 -21,-50 -5,-36 10,-46 15,-56 15,-15 5,26 -5,25 6,5 35,-46 -5,-20 25,-15 41,-26 30,-31 15,-56 20,-20 5,15 26,31 56,76 56,61 234,197 107,66 133,91 132,20 51,4 50,0 153,20 107,5 142,20 152,75 230,177 76,76 97,41 81,20 158,55 198,-1 96,30 117,-20 71,-21 92,-6 91,-10 46,-21 25,-15 96,-26 77,5 61,5 30,51 31,-6 30,21 16,45 81,97 148,131 36,20 81,-15 122,-31 107,-6 106,0 97,20 96,-36 117,-47 107,-20 202,-128 76,-41 56,-31 -5,46 -45,46 -46,56 -96,5 -46,16 5,20 76,10 51,-10 31,-11 45,-35 51,-46 35,-67 30,-25 36,-21 56,-25 55,-16 82,-36 96,-20 51,-11 147,-31 25,-5 102,-26 66,-56 40,-11 46,10 223,-143 71,-41 61,-15 30,-21 71,-15 91,-26 36,-10 45,-26 76,-51 51,-31 61,-46 35,-36 26,-20 25,-10 66,-6 35,-10 -10,-41 -10,-38 40,-16 36,-20 35,-18 20,-10 36,-15 35,-11 41,-15 30,-31 15,-41 10,-56 10,-40 15,-90 76,-43 30,-36 61,-46 61,-33 35,-13 61,-33 86,-44 36,-20 50,-19 56,-20 66,-21 86,-5 71,15 56,17 72,17 61,26 101,17 46,17 76,8 56,10 41,2 66,10 71,10 51,4 46,-5 50,-15 41,-13 50,-24 36,-22 101,-41 51,1 46,-5 35,8 112,-11 76,-18 30,-11 61,-12 21,-11 45,-20 97,-26 50,-11 71,-3 41,-2 46,-11 81,-10 40,-19 86,-48 35,-3 26,-2 71,7 82,17 91,15 41,20 97,48 40,35 72,50 61,38 41,31 71,12 56,18 35,12 57,55 86,23 56,0 106,-24 46,-16 56,-28 30,-25 76,-41 61,-11 61,-5 76,-1 46,20 51,18 45,12 41,5 61,-5 61,15 46,22 71,71 92,78 46,25 112,17 41,31 96,17 143,50 51,12 56,56 46,86 26,58 31,102 16,107 5,45 1,130 51,86 82,58 76,-3 81,-11 91,-26 61,-18 31,-10 30,-8 40,-31 36,-41 30,-38 15,-41 30,-35 46,-41 50,-34 40,-97 101,-92 71,-26 117,-11 51,25 71,0 81,-6 66,0 36,-2 45,-26 31,-16 30,10 56,25 56,36 36,22 31,3 30,-11 36,-18 50,-23 96,-34 61,-15 46,9 46,31 66,63 41,46 31,14 15,8 41,5 50,-16 71,-41 46,-28 25,-31 35,-38 46,-49 45,-46 71,-56 66,-36 111,-36 76,-31 91,-37 142,-51 56,-24 111,-46 71,-28 61,-29 81,-28 76,-34 66,-28 45,-31 76,-14 61,-28 71,-15 46,-21 45,-46 45,-56 51,-52 65,-43 56,-43 11,-7 50,-33 60,-36 71,-26 97,-2 71,-6 86,-6 56,0 81,20 66,9 77,30 66,38 51,65 52,71 61,71 56,63 77,61 51,35 61,51 77,57 86,18 56,-6 61,-11 51,-10 61,-11 55,-3 97,-11 50,-7 87,-21 60,-14 46,-15 76,-16 41,-6 30,3 97,-14 81,-18 81,-21 111,-11 102,-41 50,-16 76,-16 76,-31 76,-21 71,-10 142,-12 66,-5 61,15 92,-16 50,-6 36,-8 35,-8 41,-15 66,-31 50,-61 35,-65 50,-43 45,-143 51,-43 50,-31 106,-64 51,-26 71,-31 80,-39 107,-34 71,-6 51,-3 91,-36 60,-23 26,-24 101,-5 96,-44 76,-39 71,-33 40,-41 51,-42 60,-41 71,-29 10,-7 51,-34 65,-53 30,-31 76,-24 51,-13 66,-5 96,-1 72,10 86,-9 96,9 46,-18 71,-23 71,-24 116,-51 182,-83 116,-37 127,-14 112,-23 55,-5 6,-1 71,5 86,9 86,-9 117,-31 76,-26 76,-21 56,10 60,-1 21,-2 50,-6 61,-6 51,-5 81,4 51,-20 45,-41 45,-51 5,-6 45,-69 26,-41 30,-43 39,-82 50,-90 25,-43 40,-59 56,-72 45,-53 25,-19 71,-33 91,-36 66,-16 22,4 29,6 50,17 11,6 81,49 113,68 96,47 107,17 51,0 35,-11 46,-10 76,-37 111,-52 86,-26 76,-21 61,-5 61,-1 15,1 96,8 56,-15 66,-9 61,-18 106,-16 91,-16 61,-16 132,-25 96,-36 66,-33 35,-19 61,-18 81,-16 25,5 61,-6 96,-16 56,-5 38,-1 48,-3 92,9 117,35 137,47 143,31 96,8 56,-21 61,-11 65,-16 91,-26 107,-16 96,-25 116,-44 46,-31 55,-31 71,-46 65,-41 61,-37 81,-39 81,-38 81,-30 70,-38 45,-56 86,-67 55,-67 55,-87 45,-67 35,-61 46,2 2952,-88 46,-1 781,-22 489,-14 394,-9 81,-2 867,-27 96,-2 363,-9 606,-15 421,-12 41,-2 472,-15 147,-8 532,-27 81,-4 858,-32 370,-10 1065,-31 406,-5 71,-9 487,-13 761,-18 208,-5 979,-46 938,-43 41,-3 126,-7 193,-10 456,-24 679,-35 22,77 155,133 -21,70 22,79 19,46 49,13 30,12 29,37 23,59 17,86 4,63 33,121 26,96 107,153 125,122 163,92 57,43 29,57 34,56 55,31 60,43 -1,102 23,72 -1,58 7,63 35,55 54,18 37,29 44,27 41,32 57,-9 102,-82 50,-33 70,-6 47,1 73,6 82,37 45,43 47,100 59,136 158,159 53,12 62,-13 124,-49 52,21 103,8 151,12 71,56 86,64 103,102 38,32 73,29 106,185 -10,190 6,60 17,122 16,99 40,60 65,106 41,8 43,76 93,101 122,108 4,7 21,56 9,42 14,37 22,24 26,6 4,5 10,11 3,5 13,40 33,42 7,9 13,17 2,5 10,24 15,41 3,6 4,56 -2,5 -24,56 -22,66 -4,4 -30,47 -9,11 -16,18 -14,22 -2,8 -4,25 6,28 6,30 -5,14 -3,9 -7,22 -6,6 -19,13 -28,21 -24,13 -11,9 -22,17 -22,30 -8,11 -10,16 -21,33 -2,5 -18,34 -13,6 -8,4 -27,12 -17,4 -8,1 -13,6 -16,19 -1,6 -2,17 -5,33 -6,21 -1,6 -10,40 -10,39 -14,72 -1,6 -10,53 -21,37 -26,40 -3,11 -12,34 -12,37 -7,12 -46,38 -5,5 -13,19 -4,8 -5,16 -3,14 3,50 0,46 -1,21 1,20 0,76 1,41 1,5 12,39 12,40 0,6 3,31 3,25 -14,35 -9,16 -6,9 -33,45 -7,4 -70,70 -20,18 -41,48 -52,83 -16,80 -3,11 3,43 4,73 -11,64 -25,66 -35,39 -30,34 -10,8 -28,27 -5,7 -39,58 -12,27 -30,65 -31,72 -22,63 -13,24 -47,89 -12,22 -38,67 -23,45 -20,42 -9,20 -31,63 -37,86 -24,51 -28,59 -10,46 -9,40 -2,82 0,12 5,35 6,28 21,97 1,16 2,75 -1,62 -16,51 -9,20 -6,9 -11,14 -26,41 -14,8 -59,82 -11,15 -21,106 -5,23 -13,56 -23,143 -17,112 -9,68 -6,44 -11,69 -4,30 -7,54 -4,25 -39,136 -6,23 -20,81 -2,10 -6,46 -2,20 1,30 0,62 -10,71 -3,20 -26,85 -39,48 -22,27 -5,11 -17,29 -3,6 -11,40 -9,37 -3,7 -31,63 -3,4 -40,64 -6,5 -47,39 -35,19 -20,17 -17,17 -53,74 -2,5 -20,43 2,61 2,8 9,27 5,30 3,12 -8,35 3,13 -26,53 -8,14 -23,41 -14,25 -6,13 -16,34 -21,44 -4,7 -35,49 -25,31 -10,12 -16,17 -18,20 -28,31 -19,22 -3,4 -30,33 -20,23 -30,27 -16,13 -5,3 -23,23 -56,59 -12,45 -1,15 0,30 13,116 7,66 -1,5 -10,61 -6,30 -30,64 -13,61 -11,60 17,27 4,2 24,11 29,-27 27,-54 24,-47 31,-11 8,3 32,15 2,6 3,53 -18,42 -6,8 -5,4 -36,35 -42,41 -30,28 -16,34 29,75 7,8 36,55 32,76 28,59 3,6 1,9 1,42 -2,23 -5,47 -17,82 -5,11 -20,81 -5,16 -20,55 -3,11 -8,26 -9,42 -12,49 -18,64 -22,78 -5,8 -17,33 -14,24 -4,7 -40,66 -28,29 -11,8 -15,15 -9,10 -6,8 -31,38 -38,59 -26,32 -3,8 -16,56 -15,50 -41,61 -25,46 -22,50 -26,53 -5,9 -36,57 -5,5 -60,82 -20,32 -7,8 -12,42 -13,46 1,9 4,46 -1,36 3,7 -8,28 0,15 -25,44 -6,3 -39,24 -14,6 -83,36 -14,6 -86,38 -10,5 -7,7 -28,29 -17,16 -17,21 -51,60 -12,9 -35,24 -38,24 -7,2 -40,9 -56,12 -52,12 -9,4 -71,31 -28,14 -11,8 -42,31 -9,8 -42,35 -15,13 -4,7 -8,23 -7,17 -10,27 -20,36 -30,26 -19,12 -3,6 -10,22 -5,20 0,12 -1,55 -4,76 0,56 -18,28 -31,50 -16,31 -11,18 -28,43 -4,11 -16,42 -2,46 2,42 1,31 -15,40 -22,42 -46,44 -6,7 -18,36 -13,35 4,45 5,73 -9,65 -27,81 -13,29 -9,14 -13,18 -22,30 -15,20 -11,19 -21,34 -28,84 -1,16 -4,44 1,13 5,40 -1,23 2,23 -7,61 -1,62 -5,22 -19,73 -5,8 -21,31 -28,29 -5,4 -38,35 -10,9 -9,7 -8,6 -14,71 7,35 4,15 7,55 2,12 -1,8 -7,48 -14,81 -11,56 -2,8 -8,16 -15,24 -4,6 -28,43 -8,6 -22,13 -28,14 -5,1 -40,10 -10,3 -31,8 -9,5 -34,21 -11,10 -23,22 -33,68 -5,25 -12,54 -14,41 -12,31 -15,43 -8,11 -20,28 -9,8 -22,14 -23,12 -31,15 -4,1 -50,10 -29,27 -16,52 3,21 7,45 16,41 5,11 14,43 4,6 21,43 14,28 15,86 0,10 1,45 4,46 1,35 3,52 5,34 1,25 -3,5 -4,4 -11,57 -3,11 -19,68 -23,46 -4,6 -22,34 -45,51 -17,27 -7,15 -19,35 -1,5 -16,68 -2,10 10,36 6,10 70,119 10,16 49,42 19,14 52,39 26,22 24,21 53,43 4,6 41,56 43,59 2,5 19,51 10,46 -5,44 -2,11 -8,34 -6,16 -22,44 -12,23 -41,69 -9,13 -34,37 -41,29 -8,10 -21,28 -5,13 -3,7 3,31 19,42 13,25 61,51 42,51 10,25 15,36 53,59 9,9 91,73 69,27 11,2 55,9 54,11 43,19 4,0 31,-3 16,-1 9,-3 23,-15 10,-6 23,-45 41,-71 4,-8 15,-43 35,-57 44,-25 7,-3 22,0 13,2 13,3 19,4 70,39 16,10 56,37 19,49 37,84 28,71 17,23 15,17 41,47 12,7 56,33 26,16 60,46 32,23 4,-1 28,-6 21,-34 9,-15 12,-51 27,-52 12,-12 12,-10 4,-3 40,-15 42,3 19,3 53,6 55,8 6,-1 56,-2 66,-2 24,-1 12,1 14,5 49,19 30,29 29,27 4,4 18,47 8,62 -3,19 -3,24 0,7 3,95 -2,41 0,11 4,24 10,45 8,35 29,57 4,5 4,2 15,5 32,11 44,-6 53,-7 44,3 27,2 50,21 29,16 37,20 16,8 44,23 118,73 37,34 9,8 37,48 9,60 0,61 -14,47 -7,0 -29,86 -6,11 -9,14 -24,37 -7,10 -19,30 -5,10 -1,12 -1,15 -12,38 -3,17 -3,24 -2,26 -2,20 -3,25 -1,11 -7,52 -7,34 -6,20 -14,46 -4,6 -32,44 -19,21 -5,5 -41,40 -21,13 -25,12 -45,22 -18,6 -44,17 -44,16 -35,18 -50,25 -4,6 -19,26 -4,59 -1,18 9,45 2,27 2,34 5,31 13,106 9,19 15,36 2,6 33,27 30,17 41,23 44,25 22,17 26,20 48,36 19,45 16,35 9,40 3,36 6,54 -16,52 -20,17 -7,12 -12,18 -8,18 -3,5 4,15 9,40 21,41 13,25 10,18 -9,34 -9,16 -7,6 -19,7 -5,3 -35,14 -9,5 -14,20 -36,54 -18,28 -6,5 -23,23 -11,7 -28,18 -26,19 -27,20 -24,24 -9,20 3,19 27,29 36,8 31,9 9,6 19,9 5,7 9,15 0,39 -14,30 -5,6 -30,64 -6,40 17,28 17,26 9,8 19,24 12,13 4,27 0,40 3,37 -3,41 -12,40 -6,9 -18,25 -16,18 -10,15 -26,41 -10,18 -17,56 -6,27 -13,57 -10,40 -9,42 2,53 6,76 -7,39 -53,35 -65,-6 -96,23 -84,46 10,38 56,31 21,25 7,48 10,36 -19,26 -52,6 -37,-27 -59,61 -18,90 58,42 37,31 -3,14 -15,56 -4,13 -18,70 -1,11 1,15 15,313 51,1077 61,1301 179,3660 8,161 40,847 6,119 6,189 7,129 24,490 16,323 3,84 4,83 34,700 15,323 23,484 15,313 7,115 10,166 11,199 22,596 30,611 12,247 30,554 31,707 33,677 33,757 4,95 7,137 10,197 8,166 19,368 12,227 23,515 69,1488 7,162 37,807 3,70 5,96 24,495 1,7 -5,0 -1662,93 -461,27 -943,43 -741,28 -116,6 -216,9 -234,11 -445,21 -37,2 -285,12 -154,7 -322,13 -57,3 -475,20 -6,0 -275,12 -185,8 -808,32 -767,34 -194,7 -297,14 -470,21 -164,7 -333,14 -153,6 -169,7 -649,27 -308,12 -654,26 -1348,51 -1498,58 -34,1 -1087,23 -1162,17 -804,24 -1488,40 -269,7 -1141,32 -12,0 -54,-2 -20,5 -11,0 -412,1 -642,1 -1073,7 -225,-1 -27,0 -164,-1 -106,0 -287,3 -6,0 -1151,24 -215,1 -69,0 -338,7 -84,1 -79,1 -793,10 -673,12 -57,0 -135,2 -1118,12 -489,4 -353,3 -489,3 -2420,16 -573,4 -251,2 -161,2 -866,-46 -12,-1 -891,0 -80,-1 -143,-1 -416,-4 -147,-2 -22,0 -142,-1 -22,-1 -65,0 -885,-2 -217,-1 -1120,-23 -91,-3 -222,-2 -85,-6 -47,-4 -118,-4 -1074,-23 -553,-13 -26,-1 -11,0 -378,-14 -369,-14 -1116,-44 -76,-2 -150,-4 -189,-8 -14,0 -144,-5 -139,-5 -14,-1 -164,-2 -303,-5 -188,-4 -154,-3 -169,-4 -322,-6 -31,-3 -1422,1 -481,8 -140,2 -29,-1 -317,-3 -333,-5 -278,-2 -149,-1 -1412,-19 -935,-10 -163,-2 -146,-2 -13,-1 -169,-19 -538,-60 -350,22 -243,14 -23,1 -136,6 -268,7 -118,3 -488,12 -6,0 -12,1 -95,-5 -44,-2 -478,-12 -413,-14 -491,-17 -872,-31 -261,36 -239,-10 -109,-4 -629,-25 -16,0 -111,-3 -257,-8 -536,-23 -621,-23 -19,-1 -216,-5 -102,-5 -72,0 -557,-24 -241,-8 -5,-1 -93,-3 -87,-6 -450,-36 -240,-15 -11,-40 -20,-31 -36,-30 -46,-45 -41,-26 -16,-25 -15,-30 -21,-30 -31,-31 -20,-15 -21,-5 -10,-5 -20,-5 -21,-5 -5,-35 -10,-20 -21,-15 -15,-31 -26,-45 -31,-30 -61,-30 -67,15 -15,-15 -21,5 -20,-5 5,-26 -5,-15 -15,-10 -26,-10 -21,-10 -15,-10 -5,-25 -5,-41 -11,-40 -20,-20 -46,-30 -26,-21 -20,-20 -21,-20 -10,-20 -5,-25 -21,-46 -15,-30 -16,-25 -20,-15 -36,-36 -26,-30 -31,-40 -20,-30 -5,-26 -11,-10 -5,-5 -10,-5 -26,-5 -10,-10 -5,-20 10,-30 5,-16 -5,-25 -10,-30 -6,-10 -15,-20 -5,-26 0,-15 15,-15 10,-20 5,-30 0,-46 5,-20 5,-30 -5,-20 -10,-31 -10,-30 -16,-30 -20,-20 -5,-21 -16,-40 -10,-30 -10,-31 -1,-20 16,-5 15,-5 10,-10 5,-20 -5,-35 -5,-21 -10,-15 5,-20 15,-10 10,-30 0,-26 -5,-20 5,-35 -10,-10 -10,-15 -6,-15 0,-26 -30,-50 -11,-35 -20,-16 -21,-20 5,-20 0,-40 10,-26 -5,-25 -10,-15 -15,-10 -11,-20 11,-20 5,-31 0,-35 -21,-25 -15,-36 -11,-40 -20,-5 -16,-15 -5,-20 -20,-20 -16,-6 0,-15 -15,-25 -15,-20 -21,-20 -10,-20 -16,-26 -10,-25 -26,-20 -20,-20 -5,-15 5,-31 5,-10 15,-25 10,-25 0,-41 -5,-25 5,-30 10,-20 -5,-21 0,-106 5,-45 0,-45 -5,-66 -16,-56 0,-35 -10,-50 -16,-56 -10,-20 -15,-25 -26,-25 -20,-16 -21,0 -15,10 -10,6 -11,-6 -15,-25 0,-60 15,-36 10,-10 16,-15 10,-30 0,-25 -6,-31 6,-15 10,-20 -5,-20 10,-66 15,-50 5,-61 0,-61 -6,-70 5,-66 5,-60 0,-197 -5,-101 0,-66 10,-25 41,-5 51,-20 51,-11 36,-30 25,-15 36,-15 133,-21 35,-35 0,-61 -5,-70 -36,20 -25,71 -72,30 -56,0 -30,20 -26,46 -41,10 -71,15 -57,15 -20,-15 -21,-40 -10,-46 10,-55 36,-71 25,-71 26,-45 10,-25 0,-15 -16,-26 11,-25 20,-10 5,-20 5,-26 -5,-50 -15,-35 10,-16 15,-25 -5,-15 0,-30 10,-20 10,-31 -5,-35 -10,-30 10,-16 15,-20 15,-45 21,-61 20,-55 31,-66 25,-61 41,-91 25,-101 26,-80 25,-91 30,-76 0,-51 -5,-35 -5,-25 -10,-20 -10,0 -11,-21 10,-15 11,-15 -16,-40 -5,-31 -15,-30 -21,-20 -20,-5 -21,-5 -5,-30 5,-11 21,6 10,-11 15,-35 5,-30 0,-51 5,-60 0,-56 -5,-50 -6,-41 -15,-20 -20,-10 10,-30 0,-36 -5,-25 -26,-20 -20,-15 -6,-10 11,-16 -6,-15 5,-35 6,-10 5,-46 -6,-20 -20,-50 -10,-31 -16,-10 -20,0 -21,-5 -35,-25 -62,-45 -26,-26 -35,-20 -36,-5 -21,-5 -10,-20 0,-30 15,-26 5,-15 0,-30 11,-20 5,-15 -16,-31 -41,-25 -10,-30 0,-31 -5,-15 -10,-10 -11,-40 -5,-36 -10,-50 -10,-30 -16,-21 -15,-25 -10,-25 5,-35 -11,-41 -25,-45 -52,-61 -66,-55 -36,-16 -20,-5 -16,10 -15,11 -15,0 -26,5 -20,15 -16,30 -15,15 -10,15 -20,6 0,-16 5,-15 -6,-35 -10,-35 10,-31 0,-35 -5,-51 -10,-40 -5,-76 -16,-81 -10,-75 -1,-76 -10,-56 -10,-65 -16,-66 -15,-61 -21,-50 -20,-56 -31,-76 -46,-55 -72,-66 -35,-35 -31,-5 -26,-10 -5,-20 10,-26 16,-10 15,5 5,10 26,0 30,-10 31,-25 31,-46 5,-35 25,-20 36,15 -10,-46 5,-30 20,-35 25,-56 11,-45 -11,-26 0,-30 5,-5 16,-5 15,0 15,-15 16,-15 35,-46 41,-60 31,-66 20,-46 56,-81 76,-136 51,-106 56,-126 56,-157 31,-56 25,-60 21,-66 25,-81 36,-86 20,-76 15,-45 15,-25 16,-36 10,-35 10,-26 0,-10 10,-40 15,-30 21,-36 20,-40 0,-41 5,-65 20,-56 26,-76 25,-66 20,-116 26,-111 10,-51 5,-50 0,-35 5,-26 15,-45 10,-31 16,-35 -11,-25 -5,-31 -15,-35 0,-40 10,-41 -5,-20 0,-15 20,-25 21,-26 10,-35 10,-5 10,-31 5,-5 10,-45 10,-30 11,-11 20,-40 0,-20 10,-41 15,-25 16,-40 15,-26 10,-40 15,-61 5,-40 31,-71 20,-66 26,-60 20,-51 15,-101 10,-91 15,-56 6,-45 10,-36 0,-30 -6,-35 5,-46 16,-35 10,-31 10,-45 10,-56 26,-65 10,-36 5,-40 0,-31 5,-35 10,-40 15,-31 10,-30 -5,-30 -5,-21 -20,-25 -6,-15 0,-76 5,-40 -15,-26 -20,-25 -6,-35 -15,-46 -5,-20 -10,-15 -11,-5 -10,-5 -15,-10 0,-36 10,-15 15,-5 10,-25 6,-21 10,-20 10,0 15,-5 0,-20 5,-25 16,-16 20,-10 10,-10 0,-50 15,-21 16,-10 15,-10 31,-10 20,-5 5,-20 -10,-15 0,-21 5,-5 15,-5 16,5 15,0 20,-5 16,-15 10,-15 10,-5 15,0 16,5 20,0 31,-5 20,-21 20,-15 21,-20 10,-25 20,-15 41,20 21,5 46,-5 10,15 5,30 5,0 15,10 16,41 -15,45 -31,20 0,36 -15,25 10,15 -5,5 -15,16 15,30 -10,15 -26,35 -25,26 25,-5 10,-10 16,-11 20,-15 10,-15 11,5 5,10 -21,31 -5,20 5,35 -10,51 -10,25 10,10 11,-5 15,-5 10,15 -10,20 -10,26 -10,15 -11,10 0,20 16,0 15,10 -5,10 -5,11 -15,10 30,35 -15,30 5,56 21,0 0,-51 5,-15 10,0 10,10 5,-15 0,-40 -5,-10 -10,-15 0,-21 -5,-20 0,-20 5,-61 10,-5 10,5 5,15 -5,31 0,35 31,71 10,30 5,71 11,15 15,0 0,-66 20,-20 -30,-20 -1,-36 -15,-35 -20,-25 5,-30 10,-41 0,-15 -36,-36 10,-25 15,-15 -5,-5 -5,0 -15,5 -10,-5 -5,0 -6,-10 -5,-10 5,-20 5,-11 21,-5 36,0 0,-20 -16,-30 -41,-46 0,-20 26,-20 36,15 -1,-25 11,-16 20,-10 15,-5 11,21 20,-41 10,-5 5,10 11,20 15,21 20,5 51,40 16,-15 0,-36 10,-15 -5,-10 -21,10 -15,5 -10,-5 -16,-15 -25,-25 -21,-25 -15,-5 -36,5 -30,25 -31,25 -25,21 -21,-6 -5,-20 10,-20 5,-25 0,-51 11,-15 5,-25 15,-31 10,-30 15,-25 21,-10 35,-5 31,-1 31,-45 10,-51 10,-55 0,-15 30,-11 31,-30 41,-71 25,-55 20,-56 11,-25 61,-36 35,-40 16,-16 35,-70 36,-41 25,-40 26,-16 92,-40 30,5 41,5 26,0 61,5 31,25 -10,46 -16,40 -10,56 26,71 5,65 -15,51 -10,25 -10,41 -11,35 11,15 51,51 15,35 -5,46 5,35 26,-40 10,-11 15,6 97,15 31,-11 41,-30 10,0 10,10 0,31 11,70 25,26 61,15 6,-10 -6,-31 11,-30 5,-41 -11,-35 -20,-30 -26,-31 -10,-20 0,-35 -36,-25 -51,-21 -10,0 5,-40 -5,-41 -31,-10 -41,-30 -10,-5 0,-10 15,-15 -5,-15 -5,-26 -5,-20 0,-20 25,-41 15,-35 21,-15 25,-31 -41,-5 -45,0 -21,-25 -15,-30 -16,-36 -25,-40 -41,0 -46,-5 -21,-30 0,-41 46,-40 51,-41 56,-35 26,-36 10,-35 20,-51 10,-20 21,-5 25,-20 5,-21 -35,-10 -26,0 -20,11 -11,20 -15,55 -15,41 -15,5 -46,0 -10,30 -26,11 -20,0 -46,5 -31,-41 -5,-10 -5,25 -5,31 -10,25 -16,41 -5,50 0,25 -10,61 -15,15 -36,-15 -51,-35 -10,20 -5,46 -20,10 -41,10 -36,10 -76,20 -51,56 -41,56 -20,25 -16,45 0,66 -10,30 -66,31 -15,10 -16,5 -5,25 -5,16 -10,5 -20,15 -11,10 -5,5 -15,25 -20,10 -21,26 -5,10 -20,5 -5,35 -16,31 -30,35 5,61 -10,10 -10,15 -31,51 -25,10 -26,5 -15,-5 -26,-20 21,-26 10,-30 15,-30 20,-31 16,-35 15,-25 25,-31 26,-35 15,-56 26,-35 50,-96 46,-102 51,-111 41,-71 20,-45 5,-36 0,-20 10,-15 16,-15 15,-31 15,-25 26,-76 25,-50 41,-117 30,-81 26,-65 20,-56 20,-46 21,-45 20,-46 10,-55 15,-56 21,-46 35,-91 36,-101 20,-61 10,-40 5,-40 15,-36 11,-40 15,-51 20,-46 5,-10 16,-39 0,-12 15,-19 0,-46 10,-20 5,-46 10,-35 15,-56 15,-61 26,-55 10,-51 10,-61 15,-65 10,-46 16,-45 5,-61 15,-51 15,-50 10,-41 5,-40 0,-26 10,-35 10,-51 16,-30 0,-51 5,-25 0,-20 10,-26 15,-10 15,-5 11,-10 0,-40 5,-21 35,-30 46,-40 31,-21 15,26 41,-11 30,-40 -20,-46 5,-40 31,-10 40,-21 51,-15 36,-25 20,-46 36,-10 -10,-20 -10,-15 -6,-15 0,-36 36,-10 0,-40 15,-26 -5,-20 26,-10 15,-10 10,-56 30,-76 31,-40 25,-16 31,5 21,86 5,66 5,0 72,51 51,55 10,56 5,30 20,-10 16,-15 30,0 46,15 36,20 36,15 189,127 97,0 127,-26 102,0 82,-5 87,10 127,15 133,91 128,40 153,61 10,15 72,116 25,40 31,11 5,-26 -62,-136 -56,-51 -133,-70 -61,-31 -76,-65 -108,-15 -107,-46 -194,-15 -178,21 -21,0 -127,-5 -92,-36 -97,-40 -36,-15 10,-30 26,-11 5,-30 25,-56 -15,-45 -46,45 -26,16 -56,0 -10,-20 -25,-16 -72,-10 -41,21 -15,-31 0,-30 10,-46 0,-55 -56,-127 -57,-60 -61,-16 -30,6 -123,40 -5,5 -25,26 -41,50 -51,112 21,35 -21,30 10,36 -15,30 10,36 26,65 -20,56 -66,56 -97,45 -82,137 -61,51 -5,-21 10,-45 10,-30 21,-56 20,-46 15,-60 15,-46 11,-51 10,-55 5,-21 5,-40 15,-61 25,-101 16,-46 5,-45 10,-35 10,-26 15,-35 5,-46 10,-66 10,-55 16,-66 10,-56 20,-76 15,-106 31,-111 15,-81 15,-41 5,-15 15,-5 31,-10 -10,-5 0,-10 -16,-11 -15,6 -10,-5 0,-16 5,-30 10,-56 20,-121 10,-96 15,-71 16,-46 5,-35 5,-36 5,-60 10,-21 15,-15 26,-10 10,0 15,-5 0,-10 -5,-15 -15,0 -21,5 -10,0 -10,-10 5,-16 10,-30 0,-66 -5,-20 5,-36 10,-15 10,-35 15,-51 6,-50 15,-76 10,-71 15,-107 10,-60 5,-76 10,-76 30,-172 5,-56 0,-71 15,-116 10,-92 6,-40 15,-61 15,-50 0,-41 -5,-51 35,26 42,222 5,31 -26,71 -5,40 11,112 71,60 21,20 61,26 51,0 30,-11 10,-15 21,-5 36,0 5,-10 20,-30 36,20 61,0 66,15 16,15 -6,41 -10,25 5,15 6,10 5,5 20,-10 10,-15 5,-25 10,-21 5,-35 0,-15 -5,-21 5,-25 21,-10 15,-10 15,-15 -5,-10 -10,-11 -41,0 5,-10 10,-5 46,-25 46,-15 5,0 87,-11 46,-25 25,-10 10,-20 -30,-5 -56,5 -46,10 -46,20 -107,46 -76,35 -41,21 -21,-5 -15,-10 0,-26 10,-35 26,-15 46,-11 25,-15 41,-50 0,-26 -21,-30 -30,-15 5,25 -10,20 -31,21 -20,20 -36,25 -25,26 -16,45 -5,46 -15,-10 -56,10 -31,35 -45,15 -21,36 -30,15 -46,-20 -36,-41 -36,-45 0,-81 15,-46 10,-65 0,-26 -15,-66 -15,-35 -16,-71 -5,-20 5,-20 10,-26 5,-20 0,-46 -10,-15 -5,0 -5,21 0,20 -5,15 -5,20 -5,5 -26,-25 -30,-20 -11,-46 -5,-5 10,-30 16,-41 20,-86 15,-61 5,-20 5,-71 0,-71 20,-65 0,-71 10,-81 15,-81 11,-102 15,-71 15,-55 0,-36 -10,-30 -6,-31 6,-40 -6,-15 -15,-10 0,-16 25,-50 0,-76 5,-15 -10,-16 -15,-20 0,-15 10,-20 15,-21 16,-10 15,-35 20,-107 15,-91 10,-55 5,-16 5,-40 -5,-31 -5,-25 5,-35 5,-46 10,-86 -5,-51 5,-50 5,-41 0,-25 5,-20 0,-56 5,-46 5,-25 10,-25 0,-56 10,-36 0,-45 -10,-61 -5,-20 5,-41 0,-30 5,-46 10,-25 10,-36 10,-25 0,-20 -10,-15 -5,-16 0,-10 -5,-25 -10,-30 -11,-16 -5,-20 5,-10 21,-15 5,-5 15,-21 -5,-15 -10,-15 -10,-25 0,-21 5,-40 5,-30 10,-31 15,-35 5,-36 20,-20 16,-10 15,-5 0,-10 5,-16 -10,-10 -21,-5 -20,-30 -5,-31 5,-20 20,-30 16,-31 10,-35 0,-20 10,-26 15,-25 15,-36 -5,-50 15,-51 16,-35 10,-36 15,-86 5,-41 5,-15 5,-20 10,-30 0,-66 -10,-31 5,-20 15,-36 10,-25 5,-25 5,-41 11,-45 15,-76 10,-71 15,-56 -5,-30 5,-21 30,-20 11,-10 20,-5 10,-5 15,-11 21,-25 30,-15 31,-25 15,-11 0,-15 5,-15 16,-5 15,15 0,10 -10,5 -5,26 5,15 15,30 -10,15 0,36 -5,15 -10,15 5,5 10,0 15,-20 15,-56 -5,-55 5,-26 31,-10 20,15 21,26 10,60 10,10 20,-10 26,56 26,106 5,11 25,-61 20,-16 62,16 66,-6 51,10 41,0 -57,-65 -51,-31 -25,5 -92,-20 -20,-15 15,-25 10,-26 5,-60 21,-46 -6,-15 -10,-41 -35,-5 -16,20 -15,11 -15,-26 -10,-20 -21,-25 -41,-31 -20,11 -20,20 -36,5 -56,71 -61,35 -56,51 0,41 5,20 -5,20 -15,0 -21,-10 -5,-5 -5,-25 0,-36 -10,-35 0,-25 10,-41 10,-96 5,-56 10,-51 0,-96 5,-51 -5,-61 0,-70 -5,-71 0,-92 -1,-50 16,-26 10,-25 10,-41 5,-35 10,-46 5,-61 0,-50 15,-51 10,-51 16,-50 5,-66 0,-61 10,-71 15,-46 5,-56 5,-70 5,-87 10,-55 10,-41 0,-46 5,-40 0,-41 5,-35 10,-46 0,-35 51,-16 51,-25 66,-46 10,5 5,36 0,15 6,10 10,25 30,36 26,-5 25,-15 31,-5 20,5 0,15 -10,0 -10,5 -26,15 -15,20 -15,26 -10,45 -26,41 -10,20 0,15 16,11 15,0 10,5 10,-5 5,-11 0,-10 -10,-10 0,-15 15,-20 26,-16 10,-20 25,-56 16,-5 25,10 20,31 11,55 -5,36 -51,71 -26,41 0,60 46,26 67,15 50,10 31,0 41,30 46,31 35,20 31,10 51,10 61,0 66,-56 10,-76 41,-10 30,-36 -30,-15 -36,10 -20,16 -26,25 -15,51 -20,35 -31,15 -76,-15 -71,-30 -67,-56 -20,-15 -82,0 -45,-20 -11,-10 0,-15 21,-36 10,-25 35,-51 26,-30 -5,-36 -11,-45 -15,-36 20,-30 36,-31 10,-20 -10,-41 -46,-71 -51,-15 -56,0 -61,16 -36,-16 -51,-30 -20,-20 -20,0 -16,15 -20,20 -10,21 -10,15 -15,10 -16,15 -15,5 -20,5 -11,-15 6,-25 -1,-20 -5,-51 5,-36 10,-35 11,-41 10,-35 10,-31 10,-60 10,-26 10,-25 10,-20 0,-31 -5,-15 -10,-41 -10,-25 -21,-25 -15,-10 -25,0 -21,5 -25,-5 -10,-5 -16,-16 -5,-20 5,-10 5,-5 26,0 10,-10 25,-51 21,-91 20,-87 20,-91 31,-127 10,-86 15,-56 0,-45 -5,-31 -21,-30 -20,-31 -10,-10 -10,-15 0,-10 15,-15 5,-26 -10,-40 0,-36 -6,-35 -5,-41 -10,-25 -15,-20 -21,-16 -10,-30 0,-41 10,-15 5,-15 0,-66 5,-20 6,0 10,-5 15,0 5,-5 -5,-16 -10,-5 -16,0 -10,-10 0,-15 5,-15 -5,-20 0,-21 15,-20 16,-10 0,-10 5,-16 10,-10 15,-5 15,-10 5,-25 11,-36 0,-30 -5,-26 -16,5 -10,-5 -5,-20 10,-20 5,-15 0,-21 -5,-15 0,-10 10,-20 5,-21 -10,-25 10,-15 5,0 16,5 15,-5 10,-5 5,-16 -5,-15 0,-20 20,-10 16,-5 20,-31 10,-15 10,-51 10,-56 41,-91 35,-112 31,-86 0,-40 5,-51 10,-66 20,-41 10,-40 10,-56 5,-36 6,-40 15,-31 15,-30 10,-31 10,-30 15,-20 11,5 5,15 -15,20 -16,41 -5,45 -5,51 -10,76 0,51 -20,30 0,21 10,0 20,-5 51,-31 16,0 10,-5 46,-5 0,-20 15,-31 0,-10 -5,-20 0,-46 20,-20 -5,-26 -21,-5 -5,0 -30,11 -26,-11 -10,-20 -5,-25 5,-26 15,-10 11,-10 0,-15 15,-20 0,-26 -16,-5 -20,-5 -25,5 -16,5 -5,-5 -10,-40 15,-92 5,-30 5,-46 21,-51 20,-60 -10,-26 0,-20 5,-20 10,-11 10,-25 5,-30 5,-26 5,-30 0,-46 15,-112 10,-81 5,-66 16,-76 10,-51 10,-50 5,-36 -10,-30 -11,-26 -15,-25 5,-25 15,-11 11,-10 5,-10 0,-20 5,-15 15,-11 10,-20 -5,-15 -10,-20 -15,-36 30,0 15,5 26,25 25,36 21,10 30,20 21,26 5,20 0,10 5,5 20,5 26,10 25,10 20,-5 -10,-10 -46,-30 -20,-31 -5,-30 -15,-15 -21,-5 -25,-10 -21,-16 -10,-20 -5,-20 -25,-15 -36,-10 -41,-11 -30,0 -10,-25 5,-15 10,-15 5,-21 0,-15 -5,-20 0,-31 5,-20 10,-25 20,-16 10,-10 11,-10 5,-10 -5,-15 0,-16 10,-25 -5,-15 -5,-5 10,-15 0,-11 10,-20 20,-35 15,-21 16,-20 15,-10 15,-26 10,-15 21,-10 20,-5 10,-41 10,-20 0,-26 -5,-15 15,-20 15,-25 6,-46 10,-56 15,-81 10,-61 5,-61 5,-36 20,-35 10,-20 5,-36 6,-25 -1,-26 11,-25 5,-21 10,-15 15,-10 5,-5 36,-25 20,-21 10,-10 31,-30 20,-51 5,-26 5,-25 10,-41 10,-20 16,5 20,31 20,66 16,65 25,56 15,5 11,-10 0,-20 10,-15 5,-21 5,-20 5,-30 -10,-31 -21,-40 -51,-31 -35,-51 -26,-5 -15,0 10,-20 0,-30 -15,-31 -15,-35 -5,-10 -11,-31 -5,-20 -10,-15 10,-21 15,-25 16,-26 0,-15 -16,-5 -30,51 -20,56 20,35 26,81 -5,36 10,30 -5,46 -21,51 -30,31 -15,30 -21,41 0,45 -15,10 -20,-20 -5,-10 5,-15 10,-15 10,-26 5,-15 -10,-25 0,-82 5,-35 5,-26 10,-25 0,-61 5,-35 5,-41 5,-36 -10,-50 0,-71 -5,-31 -21,-5 -20,0 -5,5 -20,-5 5,-5 10,-20 25,-31 15,-30 11,-31 10,-66 0,-45 15,-41 5,-20 5,-21 0,-10 5,-25 5,-16 10,-25 10,-15 5,-41 6,-25 0,-21 5,-35 10,-25 20,-11 20,0 -10,36 0,15 16,0 15,-5 15,-20 30,-36 16,-30 15,-36 20,-36 15,-20 21,-25 5,-5 25,-21 20,-20 -5,-20 -10,-21 5,-25 -5,-20 -25,0 -21,10 -40,30 -15,11 -16,15 -15,5 -10,5 10,51 0,35 -15,21 -15,-5 -21,0 -10,35 -10,5 -5,0 -15,-25 10,-36 -5,-45 10,-56 5,-26 0,-81 -10,-35 -11,-41 5,-41 -5,-35 -15,-76 -21,-77 0,-55 -15,-31 -15,-25 -26,-10 -35,5 -71,10 -46,10 -36,0 -30,-10 -10,-15 -5,-20 5,-16 40,-20 26,0 20,5 15,0 10,-30 11,-21 25,-10 31,-5 20,-5 20,-26 15,-20 16,-5 20,-41 15,-51 15,-55 10,-56 10,-77 16,-60 30,-168 5,-61 0,-36 5,-50 10,-61 5,-56 0,-46 10,-31 10,-20 21,5 -10,20 10,11 20,20 0,20 -10,26 15,20 21,25 5,16 -26,5 -15,-5 -15,5 -10,40 -10,173 -20,117 -26,91 -10,21 15,5 15,-5 41,-51 71,-71 20,-31 31,-20 20,-26 5,-20 5,-25 31,-41 0,-15 -10,-31 -5,-15 -6,-25 -10,-21 0,-15 10,-35 -15,-31 -5,-35 -5,-41 -26,-20 -30,-16 -31,-35 0,-10 -5,-26 -10,-30 -15,-10 -26,-41 -25,-25 -10,-31 -16,-25 -15,-31 -20,-35 -15,-31 -11,-45 -10,-31 5,-25 5,-21 5,-10 21,-30 10,-15 5,-26 -5,-25 -21,-36 -30,-30 -20,-15 25,-11 5,-10 -5,-20 5,-15 10,-11 31,-5 30,-15 15,-10 10,-31 11,-56 5,-50 -6,-51 11,-61 5,-31 10,-10 5,5 10,31 -5,35 5,97 15,25 77,-25 15,-5 30,20 46,56 56,81 51,25 36,46 20,25 41,41 15,35 35,31 21,25 35,31 16,-5 10,-5 -26,-51 11,-10 20,-16 10,-25 36,-5 15,-10 5,-11 10,-35 0,-36 20,-10 5,-5 21,-5 25,-20 20,-26 26,-20 66,-21 5,-15 -15,-20 -16,5 -30,15 -10,-20 -16,-10 -40,20 -56,0 -41,-10 5,-10 5,-31 5,-20 -15,0 -41,-15 -15,-10 15,-36 16,-46 -11,-15 -15,-10 -15,-25 -46,-66 -5,-21 15,-15 5,-25 -5,-16 -10,-10 -10,-20 15,-20 -10,-11 -10,-20 -36,-25 -10,-36 -10,-30 20,-16 25,-5 21,-15 15,-41 5,-15 36,-10 20,-15 5,-16 -20,-10 -16,0 -71,36 -5,15 -5,21 -30,-6 -41,-15 -30,11 -127,-51 -21,-76 -51,-15 -56,-16 -20,-10 -15,-25 40,-56 11,-46 5,-51 5,-71 5,-56 10,-61 20,-56 0,-30 5,-36 15,-56 5,-56 10,-56 21,-61 5,-81 10,-66 20,-66 5,0 46,-31 30,-66 25,-56 11,-76 -11,-92 0,-35 31,-31 30,-5 107,20 132,21 40,-16 21,-61 -10,-61 -21,-30 -30,-87 15,-66 15,-30 -5,-10 -10,-16 -10,-5 -21,31 -5,30 -5,46 21,107 5,15 -5,15 -10,0 -21,-10 -5,-5 -5,-25 0,-11 5,-10 0,-35 -10,-10 -20,0 -56,10 -56,15 -36,-5 -20,56 -25,61 -76,76 -21,67 36,127 -10,45 -30,82 -16,20 -10,0 -5,-10 0,-36 10,-35 0,-36 -10,-30 5,-56 5,-31 5,-35 -10,-31 0,-71 5,-51 5,-40 -10,-82 -5,-61 0,-71 -6,-36 -10,-61 -10,-45 -31,-51 -30,-31 -31,-15 -30,-20 -10,-20 -5,-21 -5,-10 -5,-25 -6,-11 6,-25 -6,-25 0,-21 16,-15 5,-15 -10,-10 -6,-21 -20,-5 -25,0 -31,10 -25,6 -5,-21 10,-20 -15,-20 15,-21 -5,-30 25,-16 10,-30 21,-15 10,-11 15,-10 10,-20 5,-20 -5,-16 -5,-10 10,-41 10,-15 0,-61 5,-25 0,-21 -10,-20 20,-15 11,-21 -6,-25 6,-25 5,-36 15,-56 10,-56 0,-41 -10,-35 5,-46 10,-51 0,-66 -5,-81 0,-41 -5,-26 5,-25 15,-36 5,-35 0,-56 -5,-36 5,-51 -5,-25 -5,-31 -5,-30 10,-31 0,-56 5,-30 5,-20 20,-16 35,-5 -10,-20 -20,-5 -35,5 -11,-20 11,-11 -6,-20 -10,-20 -15,-10 -5,-26 0,-20 -10,-31 -5,-15 -31,-5 -15,-20 -10,-36 0,-41 -15,-30 -26,-26 -5,-30 -25,-15 -21,-16 0,-20 10,-30 -5,-26 -5,-25 10,-16 26,-10 35,-20 41,-21 25,-30 15,-26 0,-56 16,-30 20,-26 30,-30 66,-21 46,-15 25,-5 36,-5 25,0 20,-10 21,-31 0,-51 20,-71 15,-76 20,-56 26,-72 5,-35 5,0 10,15 5,20 0,10 -5,16 -25,71 -10,31 0,20 10,10 25,-31 20,-50 11,-36 20,-51 15,-25 25,0 -10,-21 -20,-30 -15,-16 -21,0 -40,16 -10,-138 -1,-96 -10,-41 -5,-46 0,-40 10,-46 0,-41 -15,-56 0,-56 -5,-81 -15,-41 -5,-46 -6,-76 -5,-77 -20,-142 -5,-25 -10,-56 -36,-107 -51,-148 -30,-97 -16,-55 -30,-77 -30,-132 -26,-51 -35,-51 -26,-46 -35,-81 -31,-76 -45,-97 -41,-81 -36,-77 -15,-25 -10,-36 0,-61 15,-10 56,10 36,20 71,46 15,36 5,15 -36,-10 -25,-26 -10,-15 -46,-20 -5,20 0,10 -15,0 -10,11 15,25 15,46 117,152 20,-10 5,0 5,15 10,6 6,-6 5,-15 5,-20 15,-10 5,-11 15,0 10,5 -10,11 -20,40 5,11 5,10 5,0 15,-5 16,-5 0,-16 5,-25 0,-16 5,-20 10,-10 15,15 41,5 40,0 36,20 0,16 -5,15 5,20 10,5 45,21 61,30 21,36 66,30 5,31 -5,15 -26,41 -15,36 -5,10 15,0 15,-5 11,-21 10,-25 15,0 5,10 -10,20 5,21 10,5 5,5 15,5 21,-15 5,-11 15,-25 5,-10 15,10 -5,20 -25,51 -20,56 -11,10 -50,46 20,-5 51,-20 5,-5 10,-21 25,-76 21,-51 20,-10 5,15 -15,25 -5,11 -10,30 0,31 40,76 15,5 16,0 15,5 15,26 10,0 10,-6 10,-15 16,5 55,0 21,10 61,51 40,31 15,25 -25,61 -30,87 5,41 56,-67 45,-81 41,-51 35,-21 31,0 10,-40 5,-31 15,-10 20,-5 5,10 6,30 30,11 20,-26 0,-30 10,-16 31,0 10,21 -5,66 -20,51 25,66 31,102 5,157 5,92 20,61 26,10 61,10 40,15 20,26 31,86 5,26 15,25 46,31 -25,-46 -21,-46 -10,-56 -36,-71 -60,-36 -36,-40 0,-41 5,-30 -20,-36 -16,-46 5,-46 -20,-86 71,-26 31,26 50,20 46,20 20,61 10,-15 5,-20 -20,-51 -30,-21 -56,-15 -20,-35 -36,-16 -25,11 -36,25 -25,-25 -5,-31 35,-61 -46,-127 -101,-36 -30,21 -31,5 -51,-20 -35,-26 -71,-66 -31,-30 0,-41 46,-15 46,-41 30,-10 51,-6 96,31 203,-51 71,0 71,4 35,-15 36,-41 0,-25 30,-15 21,-41 55,-46 26,-5 0,25 -10,26 -21,20 -45,56 10,26 10,35 56,46 5,56 56,86 10,16 25,0 10,-11 21,-10 5,10 20,36 26,30 35,31 25,5 21,5 35,-5 56,-5 81,20 117,-31 50,-25 41,0 30,35 16,10 25,10 86,0 36,-15 51,-20 50,-36 26,-10 50,-11 21,0 30,-10 40,-20 51,-36 26,5 55,20 41,-10 40,-36 11,-66 20,-56 15,-10 -15,-21 -5,-15 0,-15 5,-5 40,-10 15,-16 86,-61 16,-20 60,-57 92,-40 0,-41 10,-10 15,-21 -5,-5 -5,0 -31,21 -30,10 0,-10 35,-46 46,-16 76,10 91,5 71,-10 66,15 46,31 86,55 56,112 61,61 66,31 97,66 15,45 10,31 10,51 16,102 25,101 81,66 127,127 92,102 81,51 z" />
      <path
         id="1387"
         d="M -19285,-26263 l 71,-25 20,-16 25,-5 10,25 -81,82 -25,31 -71,25 -5,-25 -61,10 -10,-25 10,-5 15,-11 15,-10 16,-10 0,-20 15,-11 25,-5 z" />
      <path
         id="1394"
         d="M -19539,-26115 l 51,-15 51,5 81,20 15,31 -10,71 -5,51 -35,35 -56,-30 -61,-20 35,-26 -15,-46 -20,-5 5,-25 -41,-25 z" />
      <path
         id="1398"
         d="M -19843,-25839 l 41,-16 40,-10 5,-5 31,-15 15,0 25,10 -10,20 -55,16 -26,15 -66,15 -20,31 -15,10 -71,-10 -15,-25 10,-21 20,-10 51,0 z" />
      <path
         id="1399"
         d="M -16064,-25756 l -16,-10 0,-15 41,5 61,30 61,20 51,46 50,10 46,0 10,10 -10,36 -20,5 -71,-10 -66,-5 -26,-20 -45,-26 -46,-61 z" />
      <path
         id="1401"
         d="M -20086,-25803 l -21,0 -15,-5 0,-10 5,-11 16,-10 25,0 15,-5 5,10 -5,10 -5,11 z" />
      <path
         id="1405"
         d="M -16764,-25337 l 77,-25 25,-21 45,-20 21,0 0,15 5,20 -20,46 -41,16 -66,20 -66,10 -86,1 -66,0 -51,-15 -5,-31 31,0 30,-5 76,0 56,-6 z" />
      <path
         id="1435"
         d="M -13797,-23834 l 10,-5 10,16 20,30 21,36 5,35 10,31 0,35 -15,0 -20,-20 -6,-10 -20,-26 -36,-45 -5,-15 10,-6 11,0 0,-10 -11,-25 z" />
      <path
         id="1485"
         d="M -12393,-19333 l 10,15 -86,16 -122,-76 -87,-51 -56,-40 -15,-20 -36,-15 -92,-87 -50,-55 -11,-26 10,0 26,5 46,41 81,40 20,-10 112,71 36,35 31,51 35,30 16,-10 20,5 66,46 z" />
      <path
         id="1488"
         d="M -10781,-18831 l -51,16 -91,-10 -41,5 -76,21 -31,-5 -81,-41 -66,-4 -15,-5 -57,-82 -66,1 -50,-20 -31,-31 -66,-86 -6,-35 56,35 31,30 56,36 41,15 71,30 10,25 10,26 16,25 30,10 -5,-30 -36,-71 21,5 122,35 66,-1 96,31 82,30 z" />
      <path
         id="1492"
         d="M -22414,-18720 l -26,-20 0,-10 16,-41 15,-31 5,-50 30,-61 26,-36 25,-20 41,-5 10,10 5,40 -46,31 -5,5 10,61 -10,30 -20,26 -36,41 -25,25 z" />
    </g>
  </clipPath>
  <g
     clip-path="url(#state_clip_path)"
     id="g4568"
     stroke-linejoin="round"
     stroke-width="103"
     stroke="black"
     fill="none"
     style="stroke-width:1000.00001015;stroke-miterlimit:4;stroke-dasharray:none;fill:#00a300;fill-opacity:1"
     inkscape:export-xdpi="0.51887578"
     inkscape:export-ydpi="0.51887578">
    <use
       xlink:href="#state_outline"
       id="use4507"
       stroke-width="451"
       fill="white"
       style="stroke-width:1000.00001015;stroke-miterlimit:4;stroke-dasharray:none;stroke-linejoin:round;stroke-linecap:butt;stroke:#000000;stroke-opacity:1;fill:#00a300;fill-opacity:1" />
    <g
       id="Clatsop"
       style="stroke-width:1000.00001015;stroke-miterlimit:4;stroke-dasharray:none;fill:#00a300;fill-opacity:1">
      <path
         id="1609"
         d="M -18586,-26692 l -15,0 0,-15 10,-5 5,-11 20,-10 30,5 21,16 5,15 -31,0 z"
         style="stroke-width:1000.00001015;stroke-miterlimit:4;stroke-dasharray:none;fill:#00a300;fill-opacity:1" />
      <path
         id="1610"
         d="M -18510,-26616 l -5,-15 15,5 20,10 21,5 -21,-15 -25,-10 -30,-15 -11,-10 0,-11 26,-5 30,0 15,5 56,15 51,61 30,31 -10,10 -45,0 z"
         style="stroke-width:1000.00001015;stroke-miterlimit:4;stroke-dasharray:none;fill:#00a300;fill-opacity:1" />
      <path
         id="1611"
         d="M -18530,-26560 l 10,-25 20,0 112,50 30,-5 41,0 20,10 10,26 -15,10 -36,15 -15,5 -96,26 -76,-76 z"
         style="stroke-width:1000.00001015;stroke-miterlimit:4;stroke-dasharray:none;fill:#00a300;fill-opacity:1" />
      <path
         id="1612"
         d="M -18911,-26554 l -20,15 -127,16 -10,-20 71,-51 41,0 z"
         style="stroke-width:1000.00001015;stroke-miterlimit:4;stroke-dasharray:none;fill:#00a300;fill-opacity:1" />
      <path
         id="1613"
         d="M -18723,-26513 l 51,-31 20,0 15,-15 20,10 21,71 15,25 -10,16 -56,-31 -40,-10 -31,-15 z"
         style="stroke-width:1000.00001015;stroke-miterlimit:4;stroke-dasharray:none;fill:#00a300;fill-opacity:1" />
      <path
         id="1617"
         d="M -19052,-26498 l 20,-5 15,0 10,21 0,20 -15,15 -15,5 -10,0 -5,26 -16,10 -15,-5 0,-36 -25,-15 -26,0 -10,-15 5,-15 21,-31 15,5 20,10 10,10 z"
         style="stroke-width:1000.00001015;stroke-miterlimit:4;stroke-dasharray:none;fill:#00a300;fill-opacity:1" />
      <path
         id="1618"
         d="M -18474,-26315 l -5,-16 5,-40 0,-21 25,-25 35,-11 51,-15 46,-5 25,10 20,25 26,5 20,-5 31,-5 10,0 35,112 0,51 -35,26 0,96 -5,10 -30,11 -46,-41 -66,-35 -36,-56 -40,-5 -41,-46 z"
         style="stroke-width:1000.00001015;stroke-miterlimit:4;stroke-dasharray:none;fill:#00a300;fill-opacity:1" />
      <path
         id="1622"
         d="M -19285,-26263 l 71,-25 20,-16 25,-5 10,25 -81,82 -25,31 -71,25 -5,-25 -61,10 -10,-25 10,-5 15,-11 15,-10 16,-10 0,-20 15,-11 25,-5 z"
         style="stroke-width:1000.00001015;stroke-miterlimit:4;stroke-dasharray:none;fill:#00a300;fill-opacity:1" />
      <path
         id="1630"
         d="M -19539,-26115 l 51,-15 51,5 81,20 15,31 -10,71 -5,51 -35,35 -56,-30 -61,-20 35,-26 -15,-46 -20,-5 5,-25 -41,-25 z"
         style="stroke-width:1000.00001015;stroke-miterlimit:4;stroke-dasharray:none;fill:#00a300;fill-opacity:1" />
      <path
         id="1637"
         d="M -19843,-25839 l 41,-16 40,-10 5,-5 31,-15 15,0 25,10 -10,20 -55,16 -26,15 -66,15 -20,31 -15,10 -71,-10 -15,-25 10,-21 20,-10 51,0 z"
         style="stroke-width:1000.00001015;stroke-miterlimit:4;stroke-dasharray:none;fill:#00a300;fill-opacity:1" />
      <path
         id="1641"
         d="M -20086,-25803 l -21,0 -15,-5 0,-10 5,-11 16,-10 25,0 15,-5 5,10 -5,10 -5,11 z"
         style="stroke-width:1000.00001015;stroke-miterlimit:4;stroke-dasharray:none;fill:#00a300;fill-opacity:1" />
    </g>
    <g
       id="Columbia"
       style="stroke-width:1000.00001015;stroke-miterlimit:4;stroke-dasharray:none;fill:#00a300;fill-opacity:1">
      <path
         id="1638"
         d="M -16064,-25756 l -16,-10 0,-15 41,5 61,30 61,20 51,46 50,10 46,0 10,10 -10,36 -20,5 -71,-10 -66,-5 -26,-20 -45,-26 -46,-61 z"
         style="stroke-width:1000.00001015;stroke-miterlimit:4;stroke-dasharray:none;fill:#00a300;fill-opacity:1" />
      <path
         id="1650"
         d="M -16764,-25337 l 77,-25 25,-21 45,-20 21,0 0,15 5,20 -20,46 -41,16 -66,20 -66,10 -86,1 -66,0 -51,-15 -5,-31 31,0 30,-5 76,0 56,-6 z"
         style="stroke-width:1000.00001015;stroke-miterlimit:4;stroke-dasharray:none;fill:#00a300;fill-opacity:1" />
      <path
         id="1690"
         d="M -13797,-23834 l 10,-5 10,16 20,30 21,36 5,35 10,31 0,35 -15,0 -20,-20 -6,-10 -20,-26 -36,-45 -5,-15 10,-6 11,0 0,-10 -11,-25 z"
         style="stroke-width:1000.00001015;stroke-miterlimit:4;stroke-dasharray:none;fill:#00a300;fill-opacity:1" />
    </g>
    <g
       id="Multnomah"
       style="stroke-width:1000.00001015;stroke-miterlimit:4;stroke-dasharray:none;fill:#00a300;fill-opacity:1">
      <path
         id="1776"
         d="M -12393,-19333 l 10,15 -86,16 -122,-76 -87,-51 -56,-40 -15,-20 -36,-15 -92,-87 -50,-55 -11,-26 10,0 26,5 46,41 81,40 20,-10 112,71 36,35 31,51 35,30 16,-10 20,5 66,46 z"
         style="stroke-width:1000.00001015;stroke-miterlimit:4;stroke-dasharray:none;fill:#00a300;fill-opacity:1" />
      <path
         id="1785"
         d="M -10781,-18831 l -51,16 -91,-10 -41,5 -76,21 -31,-5 -81,-41 -66,-4 -15,-5 -57,-82 -66,1 -50,-20 -31,-31 -66,-86 -6,-35 56,35 31,30 56,36 41,15 71,30 10,25 10,26 16,25 30,10 -5,-30 -36,-71 21,5 122,35 66,-1 96,31 82,30 z"
         style="stroke-width:1000.00001015;stroke-miterlimit:4;stroke-dasharray:none;fill:#00a300;fill-opacity:1" />
    </g>
    <g
       id="Tillamook"
       style="stroke-width:1000.00001015;stroke-miterlimit:4;stroke-dasharray:none;fill:#00a300;fill-opacity:1">
      <path
         id="1792"
         d="M -22414,-18720 l -26,-20 0,-10 16,-41 15,-31 5,-50 30,-61 26,-36 25,-20 41,-5 10,10 5,40 -46,31 -5,5 10,61 -10,30 -20,26 -36,41 -25,25 z"
         style="stroke-width:1000.00001015;stroke-miterlimit:4;stroke-dasharray:none;fill:#00a300;fill-opacity:1" />
    </g>
  </g>
</svg>
